<svg width="261" height="36" viewBox="0 0 261 36" fill="none" xmlns="http://www.w3.org/2000/svg">
<path d="M3.616 35.324C2.56 35.324 1.744 35.036 1.168 34.46C0.592 33.884 0.304 33.044 0.304 31.94V12.68C0.304 11.576 0.592 10.736 1.168 10.16C1.744 9.584 2.56 9.296 3.616 9.296C4.672 9.296 5.488 9.584 6.064 10.16C6.64 10.736 6.928 11.576 6.928 12.68V19.412H17.404V12.68C17.404 11.576 17.692 10.736 18.268 10.16C18.844 9.584 19.66 9.296 20.716 9.296C21.772 9.296 22.576 9.584 23.128 10.16C23.704 10.736 23.992 11.576 23.992 12.68V31.94C23.992 33.044 23.704 33.884 23.128 34.46C22.576 35.036 21.772 35.324 20.716 35.324C19.636 35.324 18.808 35.036 18.232 34.46C17.68 33.884 17.404 33.044 17.404 31.94V24.848H6.928V31.94C6.928 33.044 6.64 33.884 6.064 34.46C5.512 35.036 4.696 35.324 3.616 35.324ZM40.3048 35.396C37.7368 35.396 35.4808 34.856 33.5368 33.776C31.6168 32.672 30.1168 31.136 29.0368 29.168C27.9568 27.2 27.4168 24.908 27.4168 22.292C27.4168 19.652 27.9448 17.36 29.0008 15.416C30.0808 13.448 31.5928 11.924 33.5368 10.844C35.4808 9.764 37.7368 9.224 40.3048 9.224C42.8728 9.224 45.1168 9.764 47.0368 10.844C48.9808 11.924 50.4928 13.448 51.5728 15.416C52.6528 17.36 53.1928 19.652 53.1928 22.292C53.1928 24.908 52.6528 27.2 51.5728 29.168C50.4928 31.136 48.9808 32.672 47.0368 33.776C45.1168 34.856 42.8728 35.396 40.3048 35.396ZM40.3048 29.852C42.1768 29.852 43.6408 29.192 44.6968 27.872C45.7768 26.528 46.3168 24.668 46.3168 22.292C46.3168 19.916 45.7888 18.068 44.7328 16.748C43.6768 15.428 42.2008 14.768 40.3048 14.768C38.4088 14.768 36.9328 15.428 35.8768 16.748C34.8208 18.068 34.2928 19.916 34.2928 22.292C34.2928 24.668 34.8208 26.528 35.8768 27.872C36.9328 29.192 38.4088 29.852 40.3048 29.852ZM59.6238 35.324C58.6638 35.324 57.9198 35.06 57.3918 34.532C56.8878 34.004 56.6358 33.26 56.6358 32.3V12.32C56.6358 11.336 56.9118 10.592 57.4638 10.088C58.0158 9.56 58.7958 9.296 59.8038 9.296C60.6198 9.296 61.2798 9.464 61.7838 9.8C62.2878 10.112 62.7438 10.64 63.1518 11.384L70.2438 24.164L77.3358 11.384C77.7678 10.64 78.2238 10.112 78.7038 9.8C79.2078 9.464 79.8798 9.296 80.7198 9.296C81.6558 9.296 82.3878 9.56 82.9158 10.088C83.4438 10.592 83.7078 11.336 83.7078 12.32V32.3C83.7078 33.26 83.4558 34.004 82.9518 34.532C82.4478 35.06 81.7038 35.324 80.7198 35.324C79.7598 35.324 79.0158 35.06 78.4878 34.532C77.9838 34.004 77.7318 33.26 77.7318 32.3V21.212L72.6918 29.996C72.3558 30.524 71.9958 30.92 71.6118 31.184C71.2518 31.448 70.7598 31.58 70.1358 31.58C69.5358 31.58 69.0438 31.448 68.6598 31.184C68.2758 30.92 67.9278 30.524 67.6158 29.996L62.6118 21.356V32.3C62.6118 33.26 62.3598 34.004 61.8558 34.532C61.3518 35.06 60.6078 35.324 59.6238 35.324ZM91.2962 35C88.9922 35 87.8402 33.86 87.8402 31.58V13.04C87.8402 10.76 88.9922 9.62 91.2962 9.62H103.5C105.228 9.62 106.092 10.46 106.092 12.14C106.092 13.868 105.228 14.732 103.5 14.732H94.1762V19.556H102.708C104.436 19.556 105.3 20.408 105.3 22.112C105.3 23.816 104.436 24.668 102.708 24.668H94.1762V29.888H103.5C105.228 29.888 106.092 30.74 106.092 32.444C106.092 34.148 105.228 35 103.5 35H91.2962ZM175.074 35.396C172.506 35.396 170.25 34.856 168.306 33.776C166.386 32.672 164.886 31.136 163.806 29.168C162.726 27.2 162.186 24.908 162.186 22.292C162.186 19.652 162.714 17.36 163.77 15.416C164.85 13.448 166.362 11.924 168.306 10.844C170.25 9.764 172.506 9.224 175.074 9.224C177.642 9.224 179.886 9.764 181.806 10.844C183.75 11.924 185.262 13.448 186.342 15.416C187.422 17.36 187.962 19.652 187.962 22.292C187.962 24.908 187.422 27.2 186.342 29.168C185.262 31.136 183.75 32.672 181.806 33.776C179.886 34.856 177.642 35.396 175.074 35.396ZM175.074 29.852C176.946 29.852 178.41 29.192 179.466 27.872C180.546 26.528 181.086 24.668 181.086 22.292C181.086 19.916 180.558 18.068 179.502 16.748C178.446 15.428 176.97 14.768 175.074 14.768C173.178 14.768 171.702 15.428 170.646 16.748C169.59 18.068 169.062 19.916 169.062 22.292C169.062 24.668 169.59 26.528 170.646 27.872C171.702 29.192 173.178 29.852 175.074 29.852ZM194.645 35.324C193.589 35.324 192.773 35.036 192.197 34.46C191.621 33.884 191.333 33.056 191.333 31.976V12.968C191.333 11.888 191.621 11.06 192.197 10.484C192.773 9.908 193.601 9.62 194.681 9.62H203.537C206.417 9.62 208.637 10.328 210.197 11.744C211.781 13.136 212.573 15.08 212.573 17.576C212.573 19.472 212.093 21.068 211.133 22.364C210.197 23.636 208.829 24.524 207.029 25.028C208.373 25.388 209.453 26.312 210.269 27.8L212.069 31.04C212.453 31.76 212.621 32.444 212.573 33.092C212.549 33.74 212.297 34.28 211.817 34.712C211.337 35.12 210.629 35.324 209.693 35.324C208.757 35.324 207.989 35.144 207.389 34.784C206.813 34.4 206.297 33.788 205.841 32.948L202.565 26.936C202.277 26.408 201.905 26.048 201.449 25.856C201.017 25.64 200.513 25.532 199.937 25.532H197.957V31.976C197.957 33.056 197.669 33.884 197.093 34.46C196.541 35.036 195.725 35.324 194.645 35.324ZM197.957 20.852H202.349C204.965 20.852 206.273 19.82 206.273 17.756C206.273 15.716 204.965 14.696 202.349 14.696H197.957V20.852ZM219.523 35.324C218.467 35.324 217.651 35.036 217.075 34.46C216.499 33.884 216.211 33.056 216.211 31.976V12.644C216.211 11.564 216.499 10.736 217.075 10.16C217.651 9.584 218.467 9.296 219.523 9.296C220.579 9.296 221.395 9.584 221.971 10.16C222.547 10.736 222.835 11.564 222.835 12.644V20.492H222.907L231.655 10.844C232.111 10.364 232.591 9.992 233.095 9.728C233.623 9.44 234.211 9.296 234.859 9.296C235.843 9.296 236.563 9.56 237.019 10.088C237.475 10.592 237.679 11.192 237.631 11.888C237.583 12.584 237.307 13.208 236.803 13.76L229.315 21.68L237.235 30.644C237.859 31.34 238.171 32.048 238.171 32.768C238.171 33.488 237.919 34.1 237.415 34.604C236.911 35.084 236.191 35.324 235.255 35.324C234.439 35.324 233.779 35.168 233.275 34.856C232.771 34.52 232.243 34.028 231.691 33.38L222.907 23.552H222.835V31.976C222.835 33.056 222.547 33.884 221.971 34.46C221.419 35.036 220.603 35.324 219.523 35.324ZM250.099 35.396C248.635 35.396 247.123 35.252 245.563 34.964C244.027 34.652 242.707 34.22 241.603 33.668C240.955 33.356 240.499 32.936 240.235 32.408C239.971 31.88 239.875 31.34 239.947 30.788C240.019 30.212 240.223 29.708 240.559 29.276C240.895 28.82 241.339 28.52 241.891 28.376C242.443 28.208 243.067 28.28 243.763 28.592C244.675 29.048 245.707 29.396 246.859 29.636C248.011 29.852 249.091 29.96 250.099 29.96C251.683 29.96 252.787 29.756 253.411 29.348C254.059 28.916 254.383 28.388 254.383 27.764C254.383 27.212 254.155 26.768 253.699 26.432C253.267 26.096 252.487 25.808 251.359 25.568L247.147 24.668C242.587 23.684 240.307 21.296 240.307 17.504C240.307 15.848 240.751 14.396 241.639 13.148C242.551 11.9 243.811 10.94 245.419 10.268C247.027 9.572 248.899 9.224 251.035 9.224C252.283 9.224 253.543 9.368 254.815 9.656C256.111 9.92 257.227 10.328 258.163 10.88C258.883 11.264 259.339 11.792 259.531 12.464C259.723 13.112 259.699 13.748 259.459 14.372C259.219 14.996 258.787 15.452 258.163 15.74C257.563 16.028 256.795 15.98 255.859 15.596C255.139 15.284 254.347 15.056 253.483 14.912C252.619 14.744 251.779 14.66 250.963 14.66C249.619 14.66 248.587 14.9 247.867 15.38C247.147 15.836 246.787 16.436 246.787 17.18C246.787 17.708 247.003 18.14 247.435 18.476C247.867 18.812 248.635 19.1 249.739 19.34L253.915 20.24C258.547 21.224 260.863 23.552 260.863 27.224C260.863 28.88 260.419 30.32 259.531 31.544C258.643 32.768 257.395 33.716 255.787 34.388C254.179 35.06 252.283 35.396 250.099 35.396Z" fill="black"/>
<path d="M123.334 35.432C122.15 35.432 121.19 35.16 120.454 34.616C119.718 34.04 119.142 33.16 118.726 31.976L109.366 5.912C108.822 4.472 108.902 3.256 109.606 2.264C110.31 1.24 111.542 0.727998 113.302 0.727998C114.518 0.727998 115.446 1.016 116.086 1.592C116.758 2.136 117.286 3 117.67 4.184L123.718 22.424L130.246 4.184C130.694 3 131.238 2.136 131.878 1.592C132.55 1.016 133.43 0.727998 134.518 0.727998C135.574 0.727998 136.422 1.016 137.062 1.592C137.702 2.136 138.23 3.016 138.646 4.232L144.886 22.808L151.27 4.184C151.654 3 152.166 2.136 152.806 1.592C153.478 1.016 154.406 0.727998 155.59 0.727998C157.062 0.727998 158.134 1.24 158.806 2.264C159.478 3.256 159.558 4.472 159.046 5.912L149.59 32.024C149.174 33.176 148.598 34.04 147.862 34.616C147.158 35.16 146.214 35.432 145.03 35.432C143.846 35.432 142.886 35.16 142.15 34.616C141.414 34.04 140.838 33.16 140.422 31.976L134.23 14.648L127.942 32.024C127.494 33.176 126.918 34.04 126.214 34.616C125.51 35.16 124.55 35.432 123.334 35.432Z" fill="#D72F3F"/>
</svg>
